<?xml version="1.0" encoding="UTF-8"?>
<svg width="500px" height="500px" viewBox="0 0 500 500" version="1.1" xmlns="http://www.w3.org/2000/svg" xmlns:xlink="http://www.w3.org/1999/xlink">
    <title>logo-it-2021</title>
    <g id="logo-it-2021" stroke="none" stroke-width="1" fill="none" fill-rule="evenodd">
        <g id="Group">
            <rect id="Rectangle" fill="#0066CC" x="0" y="0" width="500" height="500"/>
            <path d="M362.336089,118.811881 L362.336089,174.651845 L410.541772,174.651845 L410.541772,220.827199 L361.986773,220.827199 L361.986773,303.513298 C361.986773,311.746114 362.336089,317.115341 362.685406,320.694825 C363.034723,323.916362 364.43199,326.77995 366.877205,329.28559 C369.322421,331.791228 373.164903,332.865075 378.40465,332.865075 L408.445874,332.149178 L410.891089,375.102995 C393.425261,379.040428 379.801917,381.188119 370.719686,381.188119 C346.966162,381.188119 330.897601,375.818892 322.514004,364.722489 C313.781091,353.984035 309.589292,333.93892 309.589292,304.587145 L309.589292,118.811881 L362.336089,118.811881 Z M255.958929,178.442844 L255.958929,375.225023 L202.328566,375.225023 L202.328566,178.442844 L255.958929,178.442844 Z M121.883022,166.516652 C131.351098,166.516652 139.362548,169.707713 145.553213,176.089838 C151.743878,182.471963 154.657132,190.272338 154.657132,199.845526 C154.657132,209.418712 151.743878,216.864525 145.553213,223.24665 C139.726703,228.919649 132.079412,232.110711 122.247179,232.110711 C112.779102,232.110711 104.767652,228.919649 98.5769872,222.537524 C92.386322,216.155399 89.1089109,208.355025 89.1089109,199.1364 C89.1089109,189.917776 92.386322,182.117401 98.2128302,175.735276 C104.403495,169.353151 112.414945,166.516652 121.883022,166.516652 Z" id="Combined-Shape-Copy-2" fill="#FFFFFF"/>
        </g>
    </g>
</svg>