<?xml version="1.0" standalone="no"?>
<!DOCTYPE svg PUBLIC "-//W3C//DTD SVG 20010904//EN"
 "http://www.w3.org/TR/2001/REC-SVG-20010904/DTD/svg10.dtd">
<svg version="1.0" xmlns="http://www.w3.org/2000/svg"
 width="512.000000pt" height="512.000000pt" viewBox="0 0 512.000000 512.000000"
 preserveAspectRatio="xMidYMid meet">

<g transform="translate(0.000000,512.000000) scale(0.100000,-0.100000)"
fill="#006ac6" stroke="none">
<path d="M3800 4641 c-88 -30 -1828 -633 -1840 -638 -8 -3 18 -10 58 -15 108
-13 284 -60 404 -108 361 -144 672 -425 852 -770 409 -784 123 -1733 -659
-2186 l-49 -28 29 -7 c1004 -221 1300 -281 1373 -281 113 1 205 74 239 191 20
70 13 200 -17 291 -39 116 -19 182 87 293 44 45 63 72 59 83 -3 9 -6 22 -6 29
0 7 -15 36 -34 63 l-34 50 24 6 c38 10 90 62 102 104 14 45 7 74 -38 160 -26
51 -31 71 -27 104 7 54 59 106 151 154 141 72 232 158 262 246 15 46 15 52 -1
96 -36 97 -116 212 -315 454 -258 313 -255 309 -279 373 -43 115 -48 258 -14
444 8 47 15 137 15 200 0 137 -11 173 -130 465 -81 198 -96 221 -157 230 -16
3 -41 1 -55 -3z"/>
<path d="M1660 3675 l0 -105 100 0 100 0 0 105 0 105 -100 0 -100 0 0 -105z"/>
<path d="M1013 3760 c-130 -24 -217 -79 -266 -168 -110 -202 -112 -735 -4
-949 34 -65 101 -125 173 -154 54 -22 73 -24 239 -24 107 0 214 6 263 14 l83
14 -2 84 -2 85 -41 -7 c-88 -14 -300 -23 -357 -15 -173 25 -222 127 -223 465
-1 432 74 512 446 476 64 -6 131 -14 147 -17 l31 -6 0 81 c0 56 -4 83 -12 86
-82 29 -383 51 -475 35z"/>
<path d="M2274 3400 c-70 -23 -141 -80 -179 -145 -14 -23 -35 -80 -46 -125
-30 -117 -24 -350 11 -453 29 -86 89 -155 162 -188 49 -22 66 -24 218 -24 149
0 312 16 336 33 5 4 8 37 6 73 l-4 67 -188 -6 c-210 -6 -261 2 -304 47 -33 35
-56 91 -56 141 l0 40 289 0 288 0 6 88 c17 240 -65 401 -230 452 -87 27 -224
26 -309 0z m256 -162 c55 -29 81 -76 88 -163 l5 -65 -201 0 -200 0 5 43 c13
110 51 174 115 194 59 19 140 15 188 -9z"/>
<path d="M1660 2940 l0 -460 100 0 100 0 0 460 0 460 -100 0 -100 0 0 -460z"/>
<path d="M1460 1685 l0 -615 100 0 100 0 0 615 0 615 -100 0 -100 0 0 -615z"/>
<path d="M1860 1685 l0 -617 278 5 c208 3 290 8 330 20 223 65 305 229 306
607 0 157 -3 198 -22 272 -42 172 -105 251 -238 300 -55 20 -81 22 -356 26
l-298 4 0 -617z m551 430 c59 -21 105 -68 129 -132 29 -79 43 -255 31 -394
-11 -134 -38 -214 -88 -270 -55 -60 -103 -74 -273 -74 l-145 0 -3 443 -2 442
154 0 c113 0 165 -4 197 -15z"/>
</g>
</svg>
