<?xml version="1.0" encoding="UTF-8" standalone="no" ?>
<!DOCTYPE svg PUBLIC "-//W3C//DTD SVG 1.1//EN" "http://www.w3.org/Graphics/SVG/1.1/DTD/svg11.dtd">
<svg xmlns="http://www.w3.org/2000/svg" xmlns:xlink="http://www.w3.org/1999/xlink" version="1.1" width="1080" height="1080" viewBox="0 0 1080 1080" xml:space="preserve">
<desc>Created with Fabric.js 5.2.4</desc>
<defs>
</defs>
<g transform="matrix(1 0 0 1 540 540)" id="91fda1b0-16a7-4218-be94-fe968aea9287"  >
</g>
<g transform="matrix(1 0 0 1 540 540)" id="bf67b2b1-57ff-4e67-a18b-9056d38bc3b7"  >
<rect style="stroke: none; stroke-width: 1; stroke-dasharray: none; stroke-linecap: butt; stroke-dashoffset: 0; stroke-linejoin: miter; stroke-miterlimit: 4; fill: rgb(255,255,255); fill-rule: nonzero; opacity: 1; visibility: hidden;" vector-effect="non-scaling-stroke"  x="-540" y="-540" rx="0" ry="0" width="1080" height="1080" />
</g>
<g transform="matrix(1 0 0 1 540 540)"  >
<g style="" vector-effect="non-scaling-stroke"   >
		<g transform="matrix(1 0 0 1 15.3 0)"  >
<path style="stroke: none; stroke-width: 1; stroke-dasharray: none; stroke-linecap: butt; stroke-dashoffset: 0; stroke-linejoin: miter; stroke-miterlimit: 4; fill: rgb(255,255,255); fill-rule: nonzero; opacity: 1;" vector-effect="non-scaling-stroke"  transform=" translate(-65.81, -54.25)" d="M 30.6 15.7 L 34 14.5 L 75.5 0.2 C 76.56540168959296 -0.18066706462342558 77.75357230207264 0.04930144101780526 78.6 0.8000000000000014 C 79.45278343969967 1.5639096924539222 80.10517684036854 2.5253315460712047 80.5 3.599999999999998 C 81.7 6.699999999999999 82.9 9.7 84.1 12.9 C 85.10490287348861 15.753272139425885 85.51333420425384 18.782471175934674 85.3 21.799999999999997 C 85.2 23.1 85 24.400000000000002 85 25.7 C 84.8997487421324 26.69748742132399 84.8997487421324 27.70251257867601 85 28.7 C 85.1 30 85.2 31.3 85.4 32.6 C 85.6679127655581 35.17784232706553 86.6362237855053 37.63320241336018 88.2 39.7 C 91 43.300000000000004 93.7 47 96.5 50.7 C 97.91713033796104 52.6006439461041 99.18746959048559 54.6064427658797 100.29999999999998 56.699999999999996 C 100.72948626076172 57.46553485118747 100.96950576896607 58.32274738048874 101 59.199999999999996 C 101.07307811645249 59.956229957075166 100.93459406188998 60.71789225716893 100.6 61.400000000000006 C 99.92601972444126 62.667018833488605 99.00846791093264 63.78847104999915 97.89999999999999 64.7 C 96.65622743722774 65.80166188924085 95.27873415273983 66.74238901035454 93.8 67.5 C 92.65744570589503 68.06025733600642 91.6376786331713 68.84207875842795 90.8 69.8 C 89.9521070517764 70.80275151344352 89.75747055840081 72.20413426574774 90.3 73.39999999999999 L 91.2 75.69999999999999 C 91.8554625718165 77.04584978347667 91.65969779024242 78.65112099238415 90.7 79.79999999999998 C 90.45738714699291 80.18357117568864 90.19015996918812 80.55100854517025 89.9 80.89999999999998 C 89.42865735261731 81.64291017503078 89.28398496528875 82.54711259583415 89.5 83.39999999999998 L 89.8 84.59999999999998 C 89.94813816233079 85.54363300569577 89.6529890347512 86.50286767032942 89 87.19999999999997 C 88.4 87.79999999999997 87.9 88.49999999999997 87.4 89.09999999999998 C 86.33883817925528 90.31118837502393 85.79963941681507 91.89283807818184 85.9 93.49999999999999 C 85.9938011077572 94.45296851707025 86.19508025227655 95.39227119149392 86.5 96.29999999999998 C 86.91857745940916 97.89773589887767 87.08724214884835 99.55064985538174 87 101.19999999999997 C 86.94617594664437 103.98514037610069 85.37295020253946 106.51765011051347 82.9 107.79999999999998 C 81.6565380495359 108.39508080499027 80.26333329885159 108.60406151759291 78.9 108.39999999999998 L 73.7 107.49999999999997 C 67.2 106.39999999999998 60.900000000000006 104.79999999999997 54.5 103.39999999999998 L 47.8 102 L 47.599999999999994 102 C 58.8 94.8 66.1 84.8 68.8 71.8 C 71.69842553866987 59.30491974682914 69.11447049705681 46.166782140881125 61.699999999999996 35.7 C 54.2 24.6 43.6 18.1 30.6 15.7 Z" stroke-linecap="round" />
</g>
		<g transform="matrix(1 0 0 1 -39.81 -13.45)"  >
<path style="stroke: none; stroke-width: 1; stroke-dasharray: none; stroke-linecap: butt; stroke-dashoffset: 0; stroke-linejoin: miter; stroke-miterlimit: 4; fill: rgb(255,255,255); fill-rule: nonzero; opacity: 1;" vector-effect="non-scaling-stroke"  transform=" translate(-10.7, -40.8)" d="M 12.2 57.5 C 7.3999999999999995 57.5 4.199999999999999 56.2 2.5 53.6 C 0.8000000000000007 51 0 46.7 0 40.7 C 0 34.7 0.9 30.4 2.6 27.9 C 4.3 25.4 7.5 24.099999999999998 12.2 24.099999999999998 C 15.299482037429783 24.099784037419465 18.387939251017634 24.469056095565843 21.400000000000013 25.200000000000006 L 21.4 29.5 C 18.56177516266078 28.98577132784907 15.684375758746704 28.718106267019856 12.799999999999944 28.700000000000003 C 10 28.7 8.099999999999998 29.599999999999998 7.099999999999999 31.3 C 6.1 33 5.499999999999998 36.1 5.499999999999998 40.8 C 5.499999999999998 45.49999999999999 5.999999999999998 48.599999999999994 6.999999999999998 50.3 C 7.999999999999998 52 9.899999999999999 52.8 12.7 52.8 C 15.614674853027882 52.81570359304371 18.525331068726384 52.58151286304498 21.400000000000006 52.099999999999994 L 21.4 56.49999999999999 C 18.377250101800986 57.15727407025505 15.293375109505583 57.49247787376541 12.199999999999996 57.49999999999999 Z" stroke-linecap="round" />
</g>
		<g transform="matrix(1 0 0 1 -22.41 -13.8)"  >
<path style="stroke: none; stroke-width: 1; stroke-dasharray: none; stroke-linecap: butt; stroke-dashoffset: 0; stroke-linejoin: miter; stroke-miterlimit: 4; fill: rgb(255,255,255); fill-rule: nonzero; opacity: 1;" vector-effect="non-scaling-stroke"  transform=" translate(-28.1, -40.45)" d="M 25.5 29.3 L 25.5 23.9 L 30.7 23.9 L 30.7 29.299999999999997 Z M 25.5 57 L 25.5 33.3 L 30.7 33.3 L 30.7 57 Z" stroke-linecap="round" />
</g>
		<g transform="matrix(1 0 0 1 -5.61 -9)"  >
<path style="stroke: none; stroke-width: 1; stroke-dasharray: none; stroke-linecap: butt; stroke-dashoffset: 0; stroke-linejoin: miter; stroke-miterlimit: 4; fill: rgb(255,255,255); fill-rule: nonzero; opacity: 1;" vector-effect="non-scaling-stroke"  transform=" translate(-44.9, -45.25)" d="M 52.9 52.7 L 54.199999999999996 52.7 L 54.199999999999996 56.5 C 51.04981609257554 57.216401107360326 47.830583889554504 57.58527146395648 44.599999999999994 57.599999999999994 C 41.099999999999994 57.6 38.599999999999994 56.7 37.099999999999994 54.7 C 35.599999999999994 52.7 34.8 49.7 34.8 45.5 C 34.8 37.1 38.199999999999996 32.9 45.099999999999994 32.9 C 51.99999999999999 32.9 54.99999999999999 36.5 54.99999999999999 43.8 L 54.699999999999996 47.4 L 40.1 47.4 C 40.01052016467688 48.97298018298103 40.470023658742875 50.528222778281304 41.4 51.8 C 42.199999999999996 52.699999999999996 43.699999999999996 53.099999999999994 46 53.099999999999994 Z M 50 43.4 C 50 41 49.7 39.4 48.9 38.5 C 48.099999999999994 37.6 46.9 37.1 45.199999999999996 37.1 C 43.75870688793964 36.98067792476598 42.33635041777776 37.491267426875375 41.3 38.5 C 40.5 39.5 40.099999999999994 41.1 40.099999999999994 43.4 Z" stroke-linecap="round" />
</g>
		<g transform="matrix(1 0 0 1 -27.66 25.25)"  >
<path style="stroke: none; stroke-width: 1; stroke-dasharray: none; stroke-linecap: butt; stroke-dashoffset: 0; stroke-linejoin: miter; stroke-miterlimit: 4; fill: rgb(255,255,255); fill-rule: nonzero; opacity: 1;" vector-effect="non-scaling-stroke"  transform=" translate(-22.85, -79.5)" d="M 20.2 95.7 L 20.2 63.3 L 25.5 63.3 L 25.5 95.7 Z" stroke-linecap="round" />
</g>
		<g transform="matrix(1 0 0 1 -7.5 25.25)"  >
<path style="stroke: none; stroke-width: 1; stroke-dasharray: none; stroke-linecap: butt; stroke-dashoffset: 0; stroke-linejoin: miter; stroke-miterlimit: 4; fill: rgb(255,255,255); fill-rule: nonzero; opacity: 1;" vector-effect="non-scaling-stroke"  transform=" translate(-43.01, -79.5)" d="M 42.2 95.7 L 30.9 95.7 L 30.9 63.3 L 42.2 63.3 C 47.1 63.3 50.6 64.5 52.400000000000006 67.1 C 54.20000000000001 69.69999999999999 55.10000000000001 73.6 55.10000000000001 79 C 55.16292964283061 81.3108982321395 54.995435555499796 83.62231663730473 54.60000000000001 85.89999999999999 C 54.25681263742343 87.72599061410322 53.61486768774912 89.48289258163291 52.7 91.10000000000001 C 50.9 94.2 47.4 95.7 42.2 95.7 Z M 49.7 79 C 49.7 75 49.2 72.2 48.2 70.5 C 47.2 68.8 45.2 67.9 42.2 67.9 L 36.2 67.9 L 36.2 91.1 L 42.2 91.1 C 45.300000000000004 91.1 47.400000000000006 89.89999999999999 48.400000000000006 87.6 C 48.94158950263057 86.43260723579563 49.27978654413 85.18127818224775 49.400000000000006 83.89999999999999 C 49.61863879768064 82.27609752559773 49.718903185302 80.63844586111547 49.699999999999996 78.99999999999999 Z" stroke-linecap="round" />
</g>
</g>
</g>
<g transform="matrix(1 0 0 1 540 608.33)" style="" id="49b1b3d3-ce32-41b6-88ff-dd8774c69031"  >
		<text xml:space="preserve" font-family="Lato" font-size="20" font-style="normal" font-weight="400" style="stroke: none; stroke-width: 1; stroke-dasharray: none; stroke-linecap: butt; stroke-dashoffset: 0; stroke-linejoin: miter; stroke-miterlimit: 4; fill: rgb(255,19,0); fill-rule: nonzero; opacity: 1; white-space: pre;" ><tspan x="-80.28" y="6.28" >Long Term Session</tspan></text>
</g>
</svg>