<?xml version="1.0" encoding="UTF-8" standalone="no"?>
<svg xmlns="http://www.w3.org/2000/svg" viewBox="0 0 100 100" height="25" width="25">
    <circle cx="50" cy="50" r="50" style="fill:#ffffff;opacity: 1;"></circle>
    <g transform="translate(50 50) scale(0.8) translate(-50 -50)">
        <path id="widget-information" d="m 45.390629,99.786959 c -16.98242,-1.61894 -31.96412,-11.72671 -39.7882799,-26.84413 -8.37337,-16.17856 -7.29976,-35.508297 2.81297,-50.646256 C 22.606359,1.0537054 50.306689,-6.1106316 72.950889,5.6052664 c 7.54364,3.903011 13.76424,9.4551596 18.53224,16.5408206 10.204221,15.164322 11.317111,34.545142 2.91688,50.796742 -4.74555,9.18104 -12.25156,16.68524 -21.44912,21.44398 -8.45571,4.3749 -18.22841,6.289761 -27.56026,5.40015 z m 8.8839,-8.61143 c 8.14637,-0.86898 16.00842,-4.19195 22.25807,-9.40759 14.5014,-12.10212 18.9736,-32.617285 10.81677,-49.619405 -5.90231,-12.302785 -16.8857,-20.534494 -30.77771,-23.0669246 -2.74696,-0.500755 -10.34702,-0.511475 -13.04453,-0.0184 -9.47364,1.7316786 -17.11407,5.7377996 -23.36827,12.2527186 -5.87694,6.121939 -9.47258,13.29721 -11.0795999,22.109874 -0.51052,2.799607 -0.51052,10.340863 0,13.140477 0.84622,4.64052 2.0804699,8.36754 4.0593999,12.25789 6.19988,12.18833 18.01316,20.46979 31.76158,22.26581 2.3586,0.30811 6.89932,0.34956 9.37429,0.0856 z m -10.12154,-8.03903 c -1.85682,-0.48635 -3.20699,-1.22856 -4.45081,-2.44667 -1.30365,-1.27671 -2.20197,-2.60795 -2.69089,-3.98768 -0.69723,-1.96758 -0.46224,-4.06793 2.00047,-17.88042 2.29817,-12.889658 2.38974,-13.712204 1.67953,-15.085386 -0.42153,-0.815021 -1.24882,-1.15539 -3.31792,-1.365078 -1.96945,-0.199591 -3.09639,-0.750359 -3.56784,-1.743716 -0.2799,-0.589748 -0.28633,-0.763696 -0.051,-1.381781 0.16527,-0.434171 0.53219,-0.861594 0.95062,-1.107364 0.66269,-0.389249 0.96587,-0.400267 11.01436,-0.400267 10.12071,0 10.34428,0.0083 10.88679,0.403734 0.969,0.706329 1.43674,1.91435 1.4355,3.707446 -5.9e-4,0.867067 -0.0853,1.885385 -0.18817,2.262928 -0.27392,1.005124 -1.79716,9.054676 -2.95052,15.592054 -0.5519,3.12821 -1.17725,6.37458 -1.38965,7.21414 -0.21241,0.83956 -0.48016,2.48445 -0.59501,3.65532 -0.27932,2.84774 -0.0303,4.1257 1.00563,5.1615 0.71388,0.71377 0.78318,0.73784 2.12359,0.73784 1.24552,0 1.54042,-0.0818 2.91642,-0.80923 2.66009,-1.40624 2.97142,-1.54428 3.48289,-1.54428 1.34714,0 1.74229,1.85894 0.70074,3.29652 -1.31465,1.81453 -4.65394,4.1251 -7.42077,5.1347 -2.83959,1.03616 -8.71836,1.33365 -11.57392,0.58569 z m 5.25889,-49.633087 c -1.5998,-0.26926 -3.4688,-1.265538 -4.72344,-2.51785 -4.34685,-4.338762 -3.10019,-11.696878 2.44609,-14.437552 2.41703,-1.194365 5.40228,-1.172283 7.85728,0.05812 1.25395,0.628456 3.04778,2.344818 3.68923,3.529922 1.36442,2.520793 1.51884,5.738642 0.39095,8.147031 -0.34305,0.732542 -0.93982,1.717569 -1.32615,2.188949 -1.89902,2.317134 -5.27711,3.545875 -8.33396,3.031384 z" style="fill:#ff0000;stroke-width:0;opacity:1" />
    </g>
</svg>
