<svg id="Livello_1" data-name="Livello 1" xmlns="http://www.w3.org/2000/svg" viewBox="0 0 4612 3872">

  <title>Logo Originale Scritta</title>

  <g>

    <ellipse cx="2306" cy="1936" rx="3261.18" ry="2737.92" style="fill: #fff"/>

    <path d="M1789,945.88c-5.56,5.14-12.8,6.84-19.35,9.72C1624.14,1019.45,1484.35,1093.9,1352,1182c-127.48,84.9-245.82,180.87-351.36,292.14-98.71,104.07-183.2,218.39-249.08,346.13-59.07,114.53-100.24,235.09-122.39,362-13,74.39-19.53,149.36-16.1,224.9q13.33,294,197,524.08c75.65,94.68,166.36,172.48,268.26,237.52,124.58,79.53,259.32,135.89,401.52,175a1735.8,1735.8,0,0,0,250.77,49c86.15,10.47,172.56,15.71,259.3,14.08a2016.16,2016.16,0,0,0,203.34-13.84c68.87-8.27,137.06-20.14,204.71-35.21,7.63-1.69,14.08-1.46,21.05,2.19q126.57,66.33,253.31,132.36a7.8,7.8,0,0,1,1.45,1.3c.18,5.78-4.66,5.56-8,6.75-71,25.09-142.94,47.15-215.51,67.17a3197.31,3197.31,0,0,1-323.75,71.43c-52.56,8.78-105.36,15.92-158.34,21.92-120.7,13.67-241.73,20.19-363.15,17.66q-107.94-2.23-215.4-13.66c-111.5-12-221.5-31.78-329.71-61.19-146.69-39.88-286.57-96.16-417.05-174.74-127.37-76.71-239.65-170.94-332.14-287.85Q140,2925.39,91,2654.44A1168.47,1168.47,0,0,1,73.31,2395.7c5.87-138,32.91-272.17,76.77-403,47-140.28,111.15-272.45,188.51-398.36,88.25-143.63,191.36-275.87,306.5-398.84C793.74,1036.68,958.63,896.79,1137,772.62q61.54-42.84,125-82.83c4.5-2.85,9-5.7,13.58-8.43a9.66,9.66,0,0,1,9.55-.34c4.19,2,8.3,4.25,12.44,6.41Q1536,811.66,1774.32,936C1779.48,938.67,1785.83,939.88,1789,945.88Z" transform="translate(-4 -4)" style="fill: #0669b2"/>

    <path d="M1676,469.06c2.58-6.43,9.26-7,14.42-9.39q69.06-31.62,139.62-59.79c167.19-67.25,338.46-121.51,514.21-161.51q113.05-25.73,227.67-43.17c59.94-9.19,120.14-16,180.45-22.09,23.85-2.4,47.83-3.57,71.75-5.22,93.2-6.43,186.51-6.55,279.81-3.51,61.93,2,123.63,7.45,185.21,14.64a2082.62,2082.62,0,0,1,300.06,57.07c147.47,39.67,288.13,95.85,419.39,174.5,128.13,76.78,241.07,171.29,334.12,288.63Q4509.79,909.9,4560.88,1174c18.48,94.8,23.29,190.38,19,286.53-4.13,92.14-19.09,182.75-41.73,272.1-36.86,145.51-93.49,283.19-165,414.9-96,176.74-214.91,336.89-351.13,484.45-182.87,198.08-390.21,366.72-617.21,511.59q-133.21,85-273.76,157.33c-3,1.52-6.07,2.83-8.86,4.61-5.09,3.26-9.76,2.77-15,0-16.43-8.82-33-17.33-49.59-26q-71.79-37.41-143.57-74.87c-5.81-3-12.49-4.86-16.75-10.49,2.94-5.26,8.59-5.95,13.25-8a3053.24,3053.24,0,0,0,374.88-201.26c190.21-120,365.66-258.42,522.7-419.71,104.47-107.31,198.55-223,278.7-349.66,73.72-116.54,133.77-239.53,174.88-371.46a1245.1,1245.1,0,0,0,45.24-202.58c7.2-52.9,10.64-106.13,8.15-159.54q-14.1-302.58-242.69-501.5C4006.51,923.25,3933,877.73,3854.56,840c-96.54-46.37-197.68-79.42-301.79-103.7a1963.36,1963.36,0,0,0-212.47-37.17c-74.16-8.91-148.54-13.68-223.17-16.66-74.07-3-148-.62-221.88,2.62-55.89,2.45-111.63,7.68-167.31,13.69-147.31,15.91-292.42,43.6-436,79.57-17.82,4.46-17.82,4.52-35.67-4.78L1728,498.29c-14.18-7.39-28.39-14.73-42.55-22.18C1682,474.31,1678,473.13,1676,469.06Z" transform="translate(-4 -4)" style="fill: #00a8ec"/>

    <path d="M2670.84,1749.37q0,83,0,165.94c0,6-.2,12,.3,18,1.28,15,9.34,24.64,23.92,28.27a66.87,66.87,0,0,0,15.81,1.57q68,.18,135.95.06c2,0,4,0,6-.06,20.68-1.15,31.78-11.65,33.9-32.07a56.91,56.91,0,0,0,.15-6c0-34.66.05-69.31-.06-104a55.77,55.77,0,0,0-1.39-11.86c-3.27-14.51-12.72-23.09-27.55-24.79-5.27-.61-10.64-.35-16-.35q-57,0-114,0c-4.67,0-9.34.09-14-.09-8.4-.33-9.45-1.36-9.92-9,0-.66-.06-1.33-.06-2,0-20-.13-40,.05-60,.1-11.21.94-11.85,12.95-12.08,8-.16,16,0,24,0,36,0,72-.12,108,.07,25.15.13,48.84,5.92,70.26,19.57,30.27,19.29,45.76,47.43,49.3,82.65a97.89,97.89,0,0,1,.36,10q0,59,0,118c0,24-7,46-20.07,66-18.73,28.66-45.74,43.85-79.48,47.47a168.28,168.28,0,0,1-18,.7c-48,.06-96-.09-144,.1-21,.08-41-3.79-59.8-13.5-36.93-19.12-55.88-50-59.47-90.91-.65-7.28-.39-14.65-.39-22q0-169.93,0-339.87c0-4-.08-8,.05-12,.32-10.66.68-11.21,11.58-11.29q31-.24,62,.05c7.74.08,9,1.63,9.37,9.55.22,5.32.11,10.66.12,16Z" transform="translate(-4 -4)" style="fill: #00a8ec"/>

    <path d="M2321.23,1701c26,0,52,.15,78-.07a140.31,140.31,0,0,1,35.58,4.53c49.75,12.6,82.31,51.88,84,103.86,1.32,41.93,1.64,84-.11,125.9-1.66,40.06-18.34,73.28-53.8,95a95.93,95.93,0,0,1-45.17,14.53c-5.32.3-10.65.58-16,.58-48.64,0-97.28,0-145.91.07-20.34,0-39.69-3.87-57.84-13.25-39.47-20.4-62.56-61-58.35-109.43,1.38-15.94,5.23-31.58,12.86-45.91,21.51-40.4,56-59.3,101-59.73,44.64-.43,89.29-.13,133.93-.14,2.66,0,5.32.11,8,.21,5,.18,7,3.24,7,7.76q.09,32,0,64c0,4.82-2.55,7.27-7.41,7.29-5.33,0-10.66.1-16,.1l-113.93,0c-4.67,0-9.35-.19-14,.15-20.26,1.47-32.76,15-32.93,35.44-.13,16.37,8.19,27.76,23.83,32.89a56,56,0,0,0,17.72,2.36c46,0,91.95,0,137.93-.09a64.77,64.77,0,0,0,13.84-1.34c14.94-3.33,24.23-13.74,26.2-29a78.93,78.93,0,0,0,.39-10q0-54,0-107.94a68.6,68.6,0,0,0-.26-8c-1.91-16.46-13.25-28.22-29.63-30.33-5.26-.67-10.65-.4-16-.4q-73,0-145.92,0c-5.33,0-10.67.1-16-.12-6.94-.28-8.8-1.69-8.87-7.87q-.32-31-.06-62c.07-7.28,2-8.83,10-9,10-.22,20-.1,30-.11h58Z" transform="translate(-4 -4)" style="fill: #00a8ec"/>

    <path d="M3223.44,2045.28c-25.31,0-50.62.06-75.93,0-20.36-.06-39.78-4.61-57.44-14.67-36.52-20.82-55.79-52.94-56.93-94.67-1.13-41.26-1-82.59-.07-123.86,1.33-56.07,38.47-98.26,93.68-108.33a149.88,149.88,0,0,1,27.75-2.86c47.28.17,94.57.09,141.85.08,13.4,0,26.7,1.38,39.44,5.35,35.52,11.07,59.18,34.85,71.6,69.66a132.9,132.9,0,0,1,7.73,45q-.12,53.94,0,107.89a132.29,132.29,0,0,1-4.84,35.5c-12.08,43.74-48.8,74.58-95,79.83a221.86,221.86,0,0,1-23.93,1.07c-22.64.14-45.28,0-67.92,0Z" transform="translate(-4 -4)" style="fill: #00a8ec"/>

    <path d="M1436.57,1700.7c25.31,0,50.63-.21,75.94.07,21,.24,41.07,5,59.22,15.59,39.46,23.08,57.52,58.59,55.14,103.45-2.13,40.13-19.2,73-54.72,94.45-14.51,8.74-30.29,14.13-47.29,14.25-50.62.34-101.24.29-151.86.25-8.39,0-9.27-1-9.34-9.24q-.24-30,0-60c.07-7.48,1.57-8.92,9.73-9,38.64-.16,77.27-.11,115.9-.16,8.66,0,17.37.46,26-.28,20.51-1.76,32.57-15.27,32.59-35.69,0-18.42-11.53-31.86-29.65-34.21a93.6,93.6,0,0,0-12-.33q-68,0-135.89,0c-3.33,0-6.67-.14-10,.11-16.85,1.26-28.53,11.64-31.56,28.18a56.06,56.06,0,0,0-.59,10q-.06,54.94,0,109.9a70.87,70.87,0,0,0,.24,8c1.64,14.36,10.38,24.46,24.29,28.42,7.16,2,14.48,2,21.81,2q57.95,0,115.9,0c5.32,0,10.65.1,16,.33,3.9.18,6,2.53,6,6.33q.1,33,0,65.92c0,4-2.63,5.82-6.4,6-4,.17-8,.24-12,.24q-62,0-123.89,0c-12,0-23.88-.54-35.66-3.56-50.46-12.92-83.24-51-85.07-102.84-1.5-42.57-1.67-85.3,0-127.86,1.58-39.28,18-72,52.34-93.76,18-11.41,37.79-16.3,58.82-16.48C1386,1700.54,1411.26,1700.71,1436.57,1700.7Z" transform="translate(-4 -4)" style="fill: #0669b2"/>

    <path d="M1692,1802.22q0-98,0-196c0-18.16.06-17.76,17.45-17.7,18.66.06,37.33-.09,56,.12,8.05.1,9.33,1.54,9.65,9.35.22,5.32.1,10.66.1,16q0,162,0,323.93c0,5.33-.13,10.67.12,16,.35,7.46,1.9,8.87,9.86,9.17,5.32.2,10.66.09,16,.09q144,0,287.94,0c25,0,22.49-2.26,22.59,22.45.07,17.33-.07,34.65-.16,52,0,4.83-2.76,7.26-7.38,7.46-5.32.22-10.66.23-16,.23H1748.18c-6,0-12,.19-18-.28-21.94-1.76-36.53-16.69-38-38.91-.41-6-.19-12-.19-18Q1691.94,1895.21,1692,1802.22Z" transform="translate(-4 -4)" style="fill: #00a8ec"/>

    <path d="M3483.53,1918.46c0-33.31-.15-66.62.1-99.93.07-9.28.26-18.79,2.23-27.79,10.57-48.19,41.87-75.67,88.85-86.54a138.14,138.14,0,0,1,31.71-3.36c54,.21,107.92.09,161.88.1,4,0,8,0,12,.36a6.46,6.46,0,0,1,6.33,6.43c.36,7.31.37,14.64.38,22,0,15.32.08,30.65-.15,46-.1,6.29-2.1,8-8.59,8.3-5.32.23-10.65.14-16,.14q-75.95,0-151.89,0c-6,0-12.07-.28-17.95.58-15.28,2.23-23.76,11.09-25.37,26.36-.7,6.6-.53,13.3-.54,20q0,95.93,0,191.86c0,24.14,1.35,22.5-22.92,22.49-16,0-32,.13-48-.1-11.32-.15-12-.82-12-12.89-.16-24.65-.06-49.3-.06-74q0-20,0-40Z" transform="translate(-4 -4)" style="fill: #00a8ec"/>

    <path d="M2174.1,2182.34c26.86-19.88,57-22.57,81.39,4.53a59.48,59.48,0,0,0,6.08-4.87c12.7-13.22,28.63-16.3,45.9-14.18,16.64,2,28.43,10.52,33.06,27.41a72.62,72.62,0,0,1,2.82,19.68c-.1,28.65,0,57.29,0,85.93,0,2.66-.19,5.32-.42,8-.28,3.16-2.61,4.78-5.28,5.06a85.06,85.06,0,0,1-13.91.3c-3.54-.22-6.33-2.22-6.58-6.15-.28-4.65-.31-9.32-.31-14,0-20.65,0-41.3,0-61.95,0-5.33-.13-10.66-.21-16-.17-10-3.08-18.91-12.82-23-10.41-4.38-20.94-3.21-30.35,3.55-8,5.78-12.22,14-13.32,23.64a167.81,167.81,0,0,0-.72,17.95c-.08,21.32.07,42.63-.1,64-.09,11-1.67,12.33-12.94,12.3a41.12,41.12,0,0,1-7.93-.59c-2.68-.53-5.05-1.94-5.27-5.1-.27-4-.44-8-.44-12-.05-22,0-44,0-65.95,0-4.66,0-9.33-.18-14-.48-10.47-3-20.1-13.83-24.49-11.44-4.65-26.25-.33-34.44,9.42a35.33,35.33,0,0,0-8.12,20.05c-.62,7.29-.9,14.63-.95,21.94-.13,20,0,40-.14,59.95-.08,8.71-2,10.46-10.56,10.69a61.24,61.24,0,0,1-9.95-.44c-3.72-.5-5.73-2.94-5.93-6.76-.07-1.33-.12-2.66-.12-4q0-60.95,0-121.9c0-2-.23-4.17.49-5.92a7.42,7.42,0,0,1,3.77-4,26.64,26.64,0,0,1,15.69-.08C2173.35,2172.79,2171.05,2178.29,2174.1,2182.34Z" transform="translate(-4 -4)" style="fill: #0981c8"/>

    <path d="M1336.71,2181.9c25.77-19.24,56.47-22.59,81.06,5.11,1.93-1.66,4-3.17,5.79-5,13.23-13.92,29.9-16.48,47.79-14,16.07,2.18,26.67,11.45,31.21,27a58.39,58.39,0,0,1,2.07,15.76c.22,30.62.16,61.24.17,91.86a37,37,0,0,1-.34,6c-.45,2.81-2,5.12-5,5.25a109.26,109.26,0,0,1-15.88-.29c-1.35-.14-3.29-2.56-3.51-4.14a102,102,0,0,1-.69-13.89c-.08-23.3-.06-46.6-.08-69.9,0-6.66-.07-13.28-2.31-19.72-3.21-9.19-9.73-14-19.18-15.05-15.74-1.71-28.94,6.79-33.9,21.93a67.18,67.18,0,0,0-3.13,21.63c.14,19.3,0,38.61,0,57.91q0,7-.1,14c-.06,4.55-1.91,7.69-6.89,7.84-4,.13-8,.1-12,0s-6.16-2.4-6.4-6.18c-.3-4.65-.21-9.32-.21-14,0-22.63-.1-45.26,0-67.89,0-7.4-.66-14.61-3.19-21.59-3-8.4-9.12-12.79-17.91-13.63-15.79-1.51-29,6.88-33.93,22a79.42,79.42,0,0,0-3.66,25.58c.15,18,0,35.95,0,53.92,0,4.66.11,9.32-.12,14-.3,6.21-2,7.74-8.77,8-3.31.13-6.65,0-10-.16-3.86-.18-6.09-2.38-6.53-6.13a68.49,68.49,0,0,1-.23-8q0-57.91,0-115.83a36.79,36.79,0,0,1,.43-7.94c.37-1.73,1.55-4.19,2.91-4.62,5.73-1.82,12-2.81,17.25.55C1333.86,2173.61,1334.57,2177.64,1336.71,2181.9Z" transform="translate(-4 -4)" style="fill: #086db5"/>

    <path d="M3593.92,2304.16c-10.37,7.44-21.23,13-34.74,12.84-25.81-.29-45.92-12.93-56.28-37-8.19-19-8.35-38.77-5.34-58.77a78.49,78.49,0,0,1,3-11.59c9.46-30.35,34.78-46.2,66.05-41.71,9.5,1.36,17.11,6.73,24.64,11,5.27-1.47,4.05-5.31,4.08-8.27.18-15.3,0-30.59.26-45.89.11-6.7,1.8-8.19,8.21-8.48,3.31-.16,6.64-.06,10,.05,3.75.12,6.28,1.9,6.64,5.82.3,3.3.41,6.63.41,10q0,83.79,0,167.58a79.9,79.9,0,0,1-.61,9.91,5.73,5.73,0,0,1-1.9,3.32c-4.44,3.74-17.5,1.79-21.41-3.13-.38-.47-.26-1.32-.57-1.89C3595.66,2306.82,3594.92,2305.75,3593.92,2304.16Z" transform="translate(-4 -4)" style="fill: #09a5e9"/>

    <path d="M1565,2307.16c-1.1,10-.26,20.4-.48,30.8-.11,4.66,0,9.32,0,14,.12,17.48-.23,16.29-18.74,15.91-3.82-.08-6.19-2-6.49-5.92-.26-3.31-.35-6.65-.35-10q0-83,0-165.94a57.93,57.93,0,0,1,.47-10c.29-1.69,1.74-4.25,3-4.48a76.68,76.68,0,0,1,13.81-1c5,0,5.9,4,7.37,7.88s4.2,1.63,6.1-.06c10.69-9.58,23.46-11.7,37.24-11,20.28,1,36.3,9.75,45.65,27.59,16.28,31.07,16.42,63-.83,93.66-15.16,26.93-48.76,35.6-76.5,21.45C1572.42,2308.61,1570.11,2305.68,1565,2307.16Z" transform="translate(-4 -4)" style="fill: #0770b8"/>

    <path d="M1780.82,2300.62c-3.82,2.3-7.76,4.71-11.74,7.07-17,10.09-35.53,11-54.15,7.59-16.24-3-27.76-12.76-31.3-29.67-4-19.17,2.62-35.36,18-45.07,8-5.05,16.93-7.43,26.27-8.83q22.66-3.39,45.22-7.61c6.06-1.15,7.82-4,7.65-9.71-.34-11.83-5.1-18.64-16.19-22.45-8.28-2.84-16.78-4-25.55-2.29-10.33,2-19.14,6.11-23.18,16.59-3.53,9.18-4,10.42-16.93,8.68a48.86,48.86,0,0,1-7.73-1.85c-3.07-1-3.93-3.52-3.34-6.28,3.32-15.28,11.72-26.87,26.32-32.88,21.71-8.93,44.12-9,66.49-2.85,16.77,4.6,24.94,16.78,26.65,33.57.54,5.28.38,10.64.41,16q.18,27.94.26,55.9c0,10,.81,19.86,4.31,29.44,2.22,6.06.32,8.11-6.44,8.41-2,.09-4-.19-6,.09-8.78,1.27-14-2.41-16-11C1783.64,2302.46,1782.14,2301.8,1780.82,2300.62Z" transform="translate(-4 -4)" style="fill: #0874bc"/>

    <path d="M2758.47,2299.79c-5,3-8.37,5-11.72,7.1-16.73,10.52-35.18,11.57-53.94,8.94-17.36-2.43-30.27-14.7-33.24-30.13-3.86-20.09,3.16-36.46,19.86-46,8.2-4.69,17.16-6.81,26.49-8.14,14.46-2.06,28.87-4.54,43.2-7.33,6.13-1.19,7.79-4,7.63-9.72-.34-11.83-5.09-18.68-16.19-22.42-8.27-2.78-16.71-3.91-25.52-2.19-10.39,2-19.44,6.08-23.06,16.63-3.15,9.16-9.18,9.94-17.22,8.65-11.54-1.84-13.08-4.73-8.62-16.08,4.92-12.54,13.62-21.37,26-26,20.54-7.61,41.75-8.15,62.72-2.38,18.88,5.2,27.45,16.48,28.49,36.15.7,13.27.28,26.59.4,39.89.11,12,.11,23.95.48,35.91.16,5.28,1.16,10.53,1.73,15.8.52,4.88,6.53,10.63,1.25,14.32-6.05,4.23-14.29,2.67-21.16.53C2761.57,2311.93,2761,2306,2758.47,2299.79Z" transform="translate(-4 -4)" style="fill: #0990d6"/>

    <path d="M3324.41,2313.22c-5.26.76-7.82,1.37-10.4,1.45-10.32.33-21.38,1.79-21.47-14.7-4.4,2.19-6.85,3-8.86,4.47-16.7,12.12-35.66,14-55.3,11.85-19.25-2.07-33.48-14.86-36.31-31.82-3.42-20.5,5-37.38,23.25-46.26,7.86-3.83,16.29-5.49,24.92-6.75,14.47-2.11,28.88-4.67,43.23-7.51,5.45-1.08,7.32-4.87,6.6-10.46-1.67-12.91-6.7-18.62-19.45-22.18a49.56,49.56,0,0,0-23.66-1.11c-9.75,2-17.38,6.33-21.88,15.5-1.71,3.49-2.33,8.23-6.76,9.29a29.18,29.18,0,0,1-19.43-2.25,4.31,4.31,0,0,1-2.27-5c2.92-13.71,9.86-24.58,22.31-31.52a65.27,65.27,0,0,1,22.6-7.6c12.57-1.82,25.35-2.18,37.83-.07,19.55,3.29,37.15,12.43,37,41.58-.09,18,.15,36,.2,53.94C3316.61,2280,3316.38,2296,3324.41,2313.22Z" transform="translate(-4 -4)" style="fill: #099fe3"/>

    <path d="M2118.24,2312.28c-6.9,3.75-14.19,2-21.27,1.61-2.77-.17-4.62-2.16-5.68-4.89-1.18-3.05-2.15-6.33-5.57-8.25-4.45,2.61-9,5.36-13.63,8-16.57,9.34-34.49,9.81-52.43,6.56-17.41-3.15-29.4-16-31.69-31.8-2.8-19.24,4.48-34.83,20.56-44,7.63-4.33,15.9-6.52,24.57-7.81,15.13-2.24,30.23-4.71,45.24-7.64,6.91-1.34,8.48-4.76,7.63-11.53-1.41-11.13-7.17-18.17-18.15-21.2-7.84-2.17-15.6-3-23.66-1.59-10.45,1.84-18.37,6.58-23.53,16.4-5.5,10.49-6.23,10.4-16.8,8.78a69.19,69.19,0,0,1-7.74-1.87c-3.19-.87-4.07-3.42-3.43-6.16,3.54-15.17,11.86-26.72,26.45-32.89,21.07-8.91,43-9.07,64.62-3.46,19.25,5,27.53,16.22,28.38,36.13.68,16,.29,32,.43,47.94.09,10-.33,20,.61,29.94C2114,2293.67,2116.41,2302.64,2118.24,2312.28Z" transform="translate(-4 -4)" style="fill: #087dc4"/>

    <path d="M3716.59,2316.87c-37.29-.39-60.38-18.63-67-51.72-3.64-18.38-3.7-37.13,2.53-55.19,8.67-25.15,26.92-38.77,53-42a97.59,97.59,0,0,1,17.93-.17c27.24,1.68,49.29,19.69,56.38,45.89a108,108,0,0,1-.61,59.12c-7.18,24.71-24.73,38.66-49.76,43.26C3723.91,2317,3718.51,2316.76,3716.59,2316.87Z" transform="translate(-4 -4)" style="fill: #0aa7eb"/>

    <path d="M2367.8,2242c-.38-11.15.51-21.74,4.24-31.86,1.83-4.95,3.76-10,6.66-14.41,16.84-25.36,41.85-31.52,69.93-27.48,25.27,3.63,42.31,18.69,50.08,43,6.65,20.81,5.42,42-.2,62.95a41.52,41.52,0,0,1-3.73,9.23c-14.66,26.67-38.51,35.05-67.2,33.16-26.47-1.75-44.85-15.12-54.66-39.74C2368.44,2265.63,2367.14,2253.71,2367.8,2242Z" transform="translate(-4 -4)" style="fill: #0988ce"/>

    <path d="M3081.68,2243c-.78,8-1.07,16.7-2.61,25.15a53.13,53.13,0,0,1-10.22,23.57c-19.2,24.47-45.37,29.21-73.58,23.31-26.85-5.61-41.95-24.4-46.83-51a126.14,126.14,0,0,1,0-43.68c5.25-31.23,29-51.73,60.83-52.66,7.91-.22,16.18-.26,23.74,1.7,26.4,6.84,41.87,24.53,46.93,51.12C3081.26,2227.62,3081.1,2235,3081.68,2243Z" transform="translate(-4 -4)" style="fill: #0898dd"/>

    <path d="M3377.1,2181.87c5.12-.21,7.94-4.51,11.89-6.79,16.75-9.68,34.26-9.75,52.06-4.15,16.39,5.17,24.61,17.38,27,33.86a99.74,99.74,0,0,1,.61,13.95q.12,40,.1,79.91a87,87,0,0,1-.36,10c-.45,3.79-3,5.79-6.72,5.9q-6,.16-12-.11c-3.95-.2-6-2.75-6.2-6.43-.29-7.31-.23-14.64-.25-22,0-19.31-.09-38.63,0-57.94a63.39,63.39,0,0,0-2.73-19.68c-2.39-7.52-7.27-12.82-14.5-15.43-16.11-5.84-40.25.11-45.81,23.09a113.63,113.63,0,0,0-2.92,27.74q.24,29,0,57.93c-.13,12.23-1.42,13.23-14.23,13a54,54,0,0,1-6-.46c-3.07-.39-4.62-2.48-4.94-5.3a91.66,91.66,0,0,1-.42-9.95q0-56.92,0-113.86c0-2.66.15-5.32.25-8,.15-4,2.44-5.88,6.23-6.18,2-.16,4-.25,6-.24C3372.91,2170.77,3372.91,2170.79,3377.1,2181.87Z" transform="translate(-4 -4)" style="fill: #09a1e5"/>

    <path d="M2804.67,2173.23c3.16-1.3,4.35-2.18,5.57-2.23,25-1,20.73-1.61,28.14,18.54,9.16,24.93,17.78,50.06,26.67,75.09,1.1,3.09,2.47,6.1,4.07,10,4.42-3.39,5.24-7.74,6.68-11.72,9.72-26.85,19.33-53.74,29.18-80.55,4.23-11.5,4.8-11.69,17.43-11.72,3.93,0,8-.4,11.32,1.69,2.18,4.59-.53,8.07-1.85,11.59q-21.74,57.81-43.76,115.52c-1.18,3.1-2.56,6.13-3.74,9.23a8.09,8.09,0,0,1-7.42,5.64c-4,.27-8,.3-11.94.2-4.3-.12-7.61-1.88-9.17-6.24-1.12-3.12-2.5-6.15-3.68-9.26q-21.3-55.85-42.55-111.71C2808,2183,2806.57,2178.64,2804.67,2173.23Z" transform="translate(-4 -4)" style="fill: #0a94d9"/>

    <path d="M2604.59,2214q0-39.82,0-79.66c0-4,.09-8,.33-11.93s2.71-5.75,6.42-6.16c.66-.07,1.33-.06,2-.1,17.11-1,18.08-.26,18.11,16.76q.11,82.63,0,165.28a65.67,65.67,0,0,1-.38,9.93,8.16,8.16,0,0,1-2.75,4.92c-3.82,2.83-17.75,2.56-21-.38a8.41,8.41,0,0,1-2.49-5.08c-.4-4.62-.28-9.28-.28-13.93Q2604.57,2253.78,2604.59,2214Z" transform="translate(-4 -4)" style="fill: #1492d4"/>

    <path d="M3134.83,2182.73c12.43-15.93,27-18.66,43.65-12.14,7,2.73,10.05,5.42,6.32,13.44-1.67,3.59-3,7.34-4.61,11a4.24,4.24,0,0,1-4.84,2.54c-3.92-.64-7.76-2-11.7-2.28-11.62-.92-18.92,3.5-23.86,14-4.06,8.65-4.7,17.94-4.77,27.27-.15,18.6-.1,37.21-.14,55.81,0,4.65.1,9.32-.19,14-.37,5.92-2.58,7.84-8.89,8.3-1.32.1-2.66.1-4,.12-12.32.14-13.58-.88-13.62-13.41-.11-39.2,0-78.41,0-117.61a40.4,40.4,0,0,1,.47-7.94c.37-1.8,1.22-3.66,3.59-4.25a34,34,0,0,1,15.75-.13C3132.92,2172.51,3131.07,2178,3134.83,2182.73Z" transform="translate(-4 -4)" style="fill: #0b9ce0"/>

    <path d="M1869.05,2181.44c15.94-13.41,21.09-15.53,34.46-13.65a50.32,50.32,0,0,1,11.39,3.31c5.58,2.21,7.1,5.39,5.47,10.88-.94,3.17-2.38,6.19-3.47,9.32-1.53,4.38-4.37,6.38-9.06,5.37a62.38,62.38,0,0,0-7.81-1.56c-13.85-1.09-22.82,4.7-26.84,18.3a100.45,100.45,0,0,0-4.13,29.48c.16,17.93,0,35.86,0,53.79a118.49,118.49,0,0,1-.41,11.92c-.28,2.78-2,5.07-5,5.29a137.08,137.08,0,0,1-13.9.2c-3.93-.11-5.82-2.6-6.19-6.35-.13-1.32-.13-2.65-.13-4,0-41.17-.06-82.35.08-123.52,0-8.65,1.53-9.7,10.87-9.83,1.32,0,2.65,0,4,0C1864.32,2170.72,1864.66,2171.05,1869.05,2181.44Z" transform="translate(-4 -4)" style="fill: #0877be"/>

    <path d="M1276,2244c0,20,.12,40-.06,59.95-.07,8.75-1.79,10.17-10.62,10.53-14.43.58-16-.71-16-15.3q-.15-59,0-117.91c0-10,1.73-11.32,11.77-11.51,1.33,0,2.66,0,4,0,9,.32,10.61,1.72,10.86,10.27.2,6.66.06,13.32.06,20q0,22,0,44Z" transform="translate(-4 -4)" style="fill: #1171b6"/>

    <path d="M1960.6,2242.73c0,19.27.1,38.54,0,57.81-.1,13.44-1.18,14.29-15,13.85-1.33,0-2.65-.15-4-.25-3.92-.31-5.91-2.66-6.3-6.35a78.4,78.4,0,0,1-.2-8q0-56.81,0-113.61c0-3.32.14-6.64.42-9.94.25-2.88,1.73-5.17,4.81-5.27a122.93,122.93,0,0,1,15.83.27c1.43.14,3.55,2.27,3.81,3.75a69.41,69.41,0,0,1,.66,11.9C1960.63,2205.53,1960.6,2224.13,1960.6,2242.73Z" transform="translate(-4 -4)" style="fill: #0779c0"/>

    <path d="M1276.15,2131.07c0,15.48-1.3,16.65-17.34,15.63-7.52-.49-9.34-2.21-9.73-9.59-.18-3.31-.16-6.63-.07-10,.28-10.25,1.28-11.2,11.61-11.41C1275.72,2115.43,1276.15,2115.85,1276.15,2131.07Z" transform="translate(-4 -4)" style="fill: #227dbc"/>

    <path d="M1960.62,2129.81c0,2,.05,3.93,0,5.89-.33,9.75-1.36,10.68-11.89,10.76-2,0-3.92,0-5.88-.08-4.61-.09-7.3-2.37-7.66-7-.2-2.61-.17-5.23-.18-7.85,0-15.58.7-16.23,16.9-15.42,6.8.35,8.16,1.55,8.6,7.82.13,1.95,0,3.92,0,5.89Z" transform="translate(-4 -4)" style="fill: #0c79c0"/>

    <path d="M3223.25,1963.19c-22,0-44,0-66,0a91.18,91.18,0,0,1-13.94-.6c-17.11-2.68-25.74-12.12-27.19-29.36-.28-3.31-.19-6.66-.2-10q0-50,0-99.93c0-3.33-.08-6.68.21-10,1.5-17,10.92-26.85,27.64-28.82a103.89,103.89,0,0,1,12-.34q67.95,0,135.91,0a98.31,98.31,0,0,1,14,.53c15,2.18,23.78,11.15,25.8,26.21a90.17,90.17,0,0,1,.46,12c0,34-.53,68,.21,101.93.48,22-7.39,39.39-38.93,38.4-.67,0-1.33,0-2,0Z" transform="translate(-4 -4)" style="fill: #fff"/>

    <path d="M3596.69,2246.91c-.16,2.28-.2,7.62-1,12.84a44.28,44.28,0,0,1-10.38,23.28c-13.38,15.19-32.6,16-47.46,2.38a43.46,43.46,0,0,1-13.56-25.92,110.82,110.82,0,0,1,.06-35.66c3.28-19.61,16.94-33.46,33.28-34.5,15.95-1,31,11.8,36.55,30.92C3596.45,2228,3596.56,2235.94,3596.69,2246.91Z" transform="translate(-4 -4)" style="fill: #fff"/>

    <path d="M1637,2240.48c-.34,5.31-.51,10.64-1,15.93a46.42,46.42,0,0,1-6.12,18.88c-6.79,11.59-16.66,19.66-30.49,19.48-14.61-.19-25.53-8.21-31-21.55-8.41-20.57-7.8-41.56.46-62.23a23.45,23.45,0,0,1,3-5.15c7.88-10.63,17.4-18.94,31.63-17.27,13.78,1.62,22.59,10.39,28.28,22.61C1636.12,2220.49,1637,2230.39,1637,2240.48Z" transform="translate(-4 -4)" style="fill: #fff"/>

    <path d="M1778.55,2245.92c10.51,31.47-19.9,54.17-48.17,49.4a25.89,25.89,0,0,1-12.45-5.73c-10-8.3-9.47-23.55,1.57-30.38a44.86,44.86,0,0,1,14.75-5.4C1749,2250.86,1763.83,2248.49,1778.55,2245.92Z" transform="translate(-4 -4)" style="fill: #fff"/>

    <path d="M2754.84,2246c9,31.91-19.32,52.69-45.5,49.75a34.09,34.09,0,0,1-9.51-2.41c-7.88-3.38-12.88-9.07-12.87-18.15s4.8-15,12.74-18.25a79,79,0,0,1,15.28-4.08C2728,2250.46,2741,2248.36,2754.84,2246Z" transform="translate(-4 -4)" style="fill: #fff"/>

    <path d="M3247,2296c-5.39.23-11.27-.46-16.56-3.68-6.59-4-11-9.5-10.77-17.69s4.66-13.93,11.82-16.86c6.06-2.48,12.63-3.83,19.08-5.16,9.06-1.87,18.45-2.46,27.27-5.06,10.43-3.06,13.93-1.3,11.91,12C3286.32,2282.21,3270.81,2295.77,3247,2296Z" transform="translate(-4 -4)" style="fill: #fff"/>

    <path d="M2044,2295.87c-5.35.19-10.56-.37-15.47-2.76-7.7-3.74-13-9.26-12.86-18.32s5.22-14.87,13.2-18a88.06,88.06,0,0,1,15.34-4c11-2.16,22.13-4,33.19-6,6.63-1.2,8.89.38,8.72,6.26C2085.39,2279.06,2069.27,2295.47,2044,2295.87Z" transform="translate(-4 -4)" style="fill: #fff"/>

    <path d="M3675,2238.48a52.42,52.42,0,0,1,.7-9.93c1.15-5.81,2.42-11.84,5-17.08,6.73-13.54,18.19-21.65,33.22-21.95,15.8-.31,28.45,7.27,35.33,21.77,9.65,20.36,9.39,41.38,0,61.73-6.67,14.52-19,22.3-35,22.09-15.27-.2-26.17-8.53-33.45-21.65C3675.52,2263.81,3674.92,2253.18,3675,2238.48Z" transform="translate(-4 -4)" style="fill: #fff"/>

    <path d="M2394.68,2242.34c.4-5.3.35-10.68,1.34-15.86a56.24,56.24,0,0,1,4.72-15.12c7.28-14.18,19.28-22.35,35.2-22,15,.31,26.82,8.05,33.33,21.74,9.68,20.36,9.37,41.33.15,61.73-6.25,13.85-18,21.6-33,22.11-16,.54-27.85-7.6-35.48-21.57C2395.63,2263.71,2394.82,2253.1,2394.68,2242.34Z" transform="translate(-4 -4)" style="fill: #fff"/>

    <path d="M3055.1,2241.46c.47,9-1.44,18.13-4.55,26.9-5.69,16.08-20.47,26.73-36.14,26.85s-30.37-10.1-36.44-26.37a75.08,75.08,0,0,1-.26-52.75c5.77-16.12,20.57-26.78,36.18-26.89s30.29,10.29,36.48,26.44A66.63,66.63,0,0,1,3055.1,2241.46Z" transform="translate(-4 -4)" style="fill: #fff"/>

  </g>

</svg>

